<mxfile host="app.diagrams.net" modified="2024-03-14T07:05:22.888Z" agent="Mozilla/5.0 (Windows NT 10.0; Win64; x64) AppleWebKit/537.36 (KHTML, like Gecko) Chrome/122.0.0.0 Safari/537.36" version="24.0.4" etag="65VhSSNRgr4TY4_ZtWHb" type="github">
  <diagram name="Page-1" id="4y5SWqxGncG3rMQPPUBM">
    <mxGraphModel>
      <root>
        <mxCell id="0" />
        <mxCell id="1" parent="0" />
      </root>
    </mxGraphModel>
  </diagram>
</mxfile>
